HIERARCHY
ROOT Hips
{
	OFFSET 0.000000 0.000000 0.000000
	CHANNELS 6 Xposition Yposition Zposition Xrotation Yrotation Zrotation
	JOINT LeftUpLeg_virtual
	{
		OFFSET 0.000000 0.000000 0.000000
		CHANNELS 3 Xrotation Yrotation Zrotation
		JOINT LeftUpLeg
		{
			OFFSET 11.394100 -6.187798 -0.413800
			CHANNELS 3 Xrotation Yrotation Zrotation
			JOINT LeftLeg
			{
				OFFSET 0.430247 -32.302673 3.732800
				CHANNELS 3 Xrotation Yrotation Zrotation
				JOINT LeftFoot
				{
					OFFSET -0.430247 -48.264931 -6.423300
					CHANNELS 3 Xrotation Yrotation Zrotation
					JOINT LeftToeBase
					{
						OFFSET 4.230900 -16.068199 23.438400
						CHANNELS 3 Xrotation Yrotation Zrotation
						JOINT LeftToe_End
						{
							OFFSET 4.510700 0.695400 19.974600
							CHANNELS 3 Xrotation Yrotation Zrotation
							End Site
							{
								OFFSET 0 0 0
							}
						}
					}
				}
			}
		}
	}
	JOINT RightUpLeg_virtual
	{
		OFFSET 0.000000 0.000000 0.000000
		CHANNELS 3 Xrotation Yrotation Zrotation
		JOINT RightUpLeg
		{
			OFFSET -11.333700 -6.187798 -0.413800
			CHANNELS 3 Xrotation Yrotation Zrotation
			JOINT RightLeg
			{
				OFFSET -0.430392 -32.302628 3.733000
				CHANNELS 3 Xrotation Yrotation Zrotation
				JOINT RightFoot
				{
					OFFSET 0.430392 -48.264973 -6.423500
					CHANNELS 3 Xrotation Yrotation Zrotation
					JOINT RightToeBase
					{
						OFFSET -4.230900 -16.068199 23.438400
						CHANNELS 3 Xrotation Yrotation Zrotation
						JOINT RightToe_End
						{
							OFFSET -4.510700 0.695400 19.974600
							CHANNELS 3 Xrotation Yrotation Zrotation
							End Site
							{
								OFFSET 0 0 0
							}
						}
					}
				}
			}
		}
	}
	JOINT Spine_virtual
	{
		OFFSET 0.000000 0.000000 0.000000
		CHANNELS 3 Xrotation Yrotation Zrotation
		JOINT Spine
		{
			OFFSET -0.002400 12.777504 0.315300
			CHANNELS 3 Xrotation Yrotation Zrotation
			JOINT Spine1
			{
				OFFSET -0.002067 5.816869 0.032633
				CHANNELS 3 Xrotation Yrotation Zrotation
				JOINT Spine1_split
				{
					OFFSET -0.002067 5.816869 0.032633
					CHANNELS 3 Xrotation Yrotation Zrotation
					JOINT Spine2
					{
						OFFSET -0.002067 5.816869 0.032633
						CHANNELS 3 Xrotation Yrotation Zrotation
						JOINT Neck_virtual
						{
							OFFSET 0.000000 0.000000 0.000000
							CHANNELS 3 Xrotation Yrotation Zrotation
							JOINT Neck
							{
								OFFSET -0.003700 21.199493 -0.826900
								CHANNELS 3 Xrotation Yrotation Zrotation
								JOINT Head
								{
									OFFSET 0.000000 20.442200 4.834800
									CHANNELS 3 Xrotation Yrotation Zrotation
									JOINT HeadTop_End
									{
										OFFSET 0.000000 34.668396 4.968400
										CHANNELS 3 Xrotation Yrotation Zrotation
										End Site
										{
											OFFSET 0 0 0
										}
									}
								}
							}
						}
						JOINT LeftShoulder_virtual
						{
							OFFSET 0.000000 0.000000 0.000000
							CHANNELS 3 Xrotation Yrotation Zrotation
							JOINT LeftShoulder
							{
								OFFSET 3.288150 8.794197 -1.372250
								CHANNELS 3 Xrotation Yrotation Zrotation
								JOINT LeftShoulder_split
								{
									OFFSET 3.288150 8.794197 -1.372250
									CHANNELS 3 Xrotation Yrotation Zrotation
									JOINT LeftArm
									{
										OFFSET 11.953299 -2.279007 -0.146200
										CHANNELS 3 Xrotation Yrotation Zrotation
										JOINT LeftForeArm
										{
											OFFSET 18.448900 0.000000 0.000000
											CHANNELS 3 Xrotation Yrotation Zrotation
											JOINT LeftHand
											{
												OFFSET 29.527798 0.000000 0.000000
												CHANNELS 3 Xrotation Yrotation Zrotation
												End Site
												{
													OFFSET 0 0 0
												}
											}
										}
									}
								}
							}
						}
						JOINT RightShoulder_virtual
						{
							OFFSET 0.000000 0.000000 0.000000
							CHANNELS 3 Xrotation Yrotation Zrotation
							JOINT RightShoulder
							{
								OFFSET -3.249400 8.794197 -1.372250
								CHANNELS 3 Xrotation Yrotation Zrotation
								JOINT RightShoulder_split
								{
									OFFSET -3.249400 8.794197 -1.372250
									CHANNELS 3 Xrotation Yrotation Zrotation
									JOINT RightArm
									{
										OFFSET -11.953299 -2.279007 -0.146200
										CHANNELS 3 Xrotation Yrotation Zrotation
										JOINT RightForeArm
										{
											OFFSET -18.448900 0.000000 0.000000
											CHANNELS 3 Xrotation Yrotation Zrotation
											JOINT RightHand
											{
												OFFSET -29.527802 0.000000 0.000000
												CHANNELS 3 Xrotation Yrotation Zrotation
												End Site
												{
													OFFSET 0 0 0
												}
											}
										}
									}
								}
							}
						}
					}
				}
			}
		}
	}
}
MOTION
Frames: 10
Frame Time: 0.03333333
3.005824 79.147598 10.087051 0.000000 0.000000 0.000000 -1.080271 -35.376217 -2.730606 -57.726867 -7.225212 24.084584 66.557106 0.914923 -0.727180 -4.606154 -11.018071 -12.281180 -4.265471 -0.536008 1.316026 0.000000 0.000000 0.000000 -2.134863 -31.735559 -2.840660 -8.001850 -17.448061 -25.884831 50.540009 -0.486869 -7.078807 -19.695796 -14.980290 28.687795 -11.830398 0.480287 2.249242 0.000000 0.000000 0.000000 -0.924928 -28.639043 -2.540110 12.052730 8.280403 -5.000887 2.191658 2.150172 -2.022312 1.055624 -0.312038 0.832429 0.000000 0.000000 0.000000 3.926181 1.380232 -1.443832 -11.362932 10.022652 6.162041 0.866062 8.288610 -0.662984 0.000000 0.000000 0.000000 2.880502 1.862435 -1.535572 0.778427 -0.216214 -5.392094 -1.767218 -3.170065 0.203616 -59.242240 2.711222 -46.128591 -179.336616 -73.054945 -178.850238 0.000000 0.000000 0.000000 2.909282 1.341672 -1.775802 3.487290 22.943577 -4.420937 -7.715280 -3.633082 2.171619 -42.519027 18.435777 48.678113 -178.531200 62.413026 177.544716 0.000000 0.000000 0.000000 
3.483547 78.487694 8.445168 0.000000 0.000000 0.000000 -2.444767 -38.531792 -2.972351 -56.066813 -5.898171 25.829477 67.199595 1.086991 -1.262859 -4.844376 -9.683063 -12.229378 -4.431656 -0.627491 1.524294 0.000000 0.000000 0.000000 -3.545070 -34.942906 -3.050641 -8.886708 -17.126097 -26.773322 53.075436 -1.571180 -6.384218 -23.144181 -17.066626 28.570439 -7.608561 0.414379 1.368955 0.000000 0.000000 0.000000 -2.398079 -31.834979 -2.648289 12.248454 7.916877 -4.132841 2.299611 2.027470 -1.857712 0.940479 -0.177552 0.918627 0.000000 0.000000 0.000000 3.919487 1.308760 -1.302186 -10.775353 10.697534 5.733017 1.917533 10.685410 -1.634910 0.000000 0.000000 0.000000 3.021214 1.753644 -1.354136 0.875304 -0.115966 -5.149229 -1.416716 -3.199222 0.093586 -60.192552 3.571855 -46.329702 -179.679778 -73.039051 -179.385343 0.000000 0.000000 0.000000 2.953028 1.196408 -1.638052 3.608188 22.645803 -4.848228 -7.128562 -3.074595 2.318770 -44.968278 18.804563 52.507895 -177.714310 63.006241 176.770842 0.000000 0.000000 0.000000 
3.792703 77.899612 6.835014 0.000000 0.000000 0.000000 -3.567500 -40.875673 -3.138795 -54.882452 -4.946660 27.175747 67.027276 1.098713 -1.583986 -4.252959 -8.739290 -12.219330 -4.390868 -0.611202 1.475437 0.000000 0.000000 0.000000 -4.773007 -37.545079 -3.160614 -9.897546 -16.343649 -27.796768 54.933456 -1.966117 -5.790947 -25.468980 -18.182139 29.163320 -4.936670 0.352099 0.770748 0.000000 0.000000 0.000000 -3.510717 -34.459076 -2.646269 12.319268 7.582512 -3.220970 2.391001 1.880425 -1.665108 0.930855 -0.082294 0.975777 0.000000 0.000000 0.000000 3.867426 1.230551 -1.133874 -10.062437 11.233440 5.127895 2.915614 12.491427 -2.492882 0.000000 0.000000 0.000000 3.180809 1.624770 -1.167217 0.989956 0.055368 -5.254392 -1.222229 -3.083354 -0.142486 -60.574018 4.173661 -46.563421 179.878974 -73.525798 -179.943574 0.000000 0.000000 0.000000 3.070644 1.060244 -1.472092 3.668720 22.016370 -5.210058 -6.465966 -2.563360 2.396731 -47.458794 18.856571 56.434230 -177.381789 63.084952 176.430862 0.000000 0.000000 0.000000 
3.886610 77.473610 5.282433 0.000000 0.000000 0.000000 -4.384263 -42.491590 -3.182906 -54.161423 -4.477033 28.140157 66.048756 1.026574 -1.663765 -2.765823 -8.216943 -12.158428 -4.227114 -0.503654 1.124736 0.000000 0.000000 0.000000 -5.749139 -39.452979 -3.155697 -10.853545 -15.337116 -28.758447 55.736830 -1.694786 -5.385809 -26.548276 -18.378261 30.560585 -3.771156 0.339797 0.399822 0.000000 0.000000 0.000000 -4.277316 -36.452672 -2.534724 12.259279 7.252684 -2.310414 2.463772 1.711092 -1.455327 0.956582 -0.047286 0.996589 0.000000 0.000000 0.000000 3.788717 1.144104 -0.942217 -9.163407 11.657329 4.381225 3.811126 13.854063 -3.306457 0.000000 0.000000 0.000000 3.343517 1.481122 -0.982337 1.123416 0.252395 -5.688254 -1.195363 -2.861723 -0.404090 -60.372616 4.548224 -46.817129 179.411939 -74.274407 179.571684 0.000000 0.000000 0.000000 3.251531 0.946428 -1.276136 3.694521 21.176677 -5.470173 -5.874824 -2.269721 2.312520 -49.830444 18.742346 60.135294 -177.497547 63.326195 176.492389 0.000000 0.000000 0.000000 
3.830214 77.312050 3.843941 0.000000 0.000000 0.000000 -4.882183 -43.534410 -3.053007 -53.811365 -4.435635 28.686668 64.510010 0.934413 -1.528926 -0.551134 -8.080108 -11.901325 -3.934766 -0.328104 0.460293 0.000000 0.000000 0.000000 -6.484813 -40.729791 -3.035765 -11.529084 -14.515477 -29.467489 55.546257 -1.145777 -5.097039 -27.019289 -18.032922 31.707674 -2.913107 0.382518 0.305163 0.000000 0.000000 0.000000 -4.673708 -37.968154 -2.260567 12.110798 6.937702 -1.463664 2.527391 1.546295 -1.250786 0.939499 -0.043263 0.937316 0.000000 0.000000 0.000000 3.706416 1.042775 -0.744453 -8.110667 12.012268 3.548009 4.586762 14.884896 -4.133844 0.000000 0.000000 0.000000 3.479917 1.335802 -0.808859 1.260472 0.447945 -6.320494 -1.276942 -2.738747 -0.585147 -59.597219 4.739811 -47.083346 178.972144 -74.915741 179.197157 0.000000 0.000000 0.000000 3.461209 0.857128 -1.076174 3.705398 20.251178 -5.655187 -5.308830 -2.135415 2.196054 -51.936922 18.765139 63.374942 -177.930799 64.043146 176.823667 0.000000 0.000000 0.000000 
3.619583 77.456116 2.445515 0.000000 0.000000 0.000000 -5.084785 -44.047910 -2.712645 -53.804679 -4.707142 28.726550 62.701396 0.799579 -1.172212 1.991464 -8.281370 -11.488025 -3.586613 -0.134205 -0.349783 0.000000 0.000000 0.000000 -7.004737 -41.425012 -2.768209 -11.933249 -14.080966 -29.869175 54.806869 -0.709267 -4.796489 -27.526161 -17.548726 31.898810 -1.501450 0.479536 0.513416 0.000000 0.000000 0.000000 -4.817667 -39.102754 -1.828818 11.928939 6.665244 -0.750186 2.564505 1.399518 -1.079093 0.792453 -0.054242 0.817393 0.000000 0.000000 0.000000 3.633329 0.945598 -0.572935 -6.934626 12.323610 2.723659 5.268469 15.689610 -4.987253 0.000000 0.000000 0.000000 3.573333 1.206253 -0.668252 1.390499 0.620704 -6.997139 -1.272176 -2.646592 -0.671723 -58.449535 4.763894 -47.393122 178.702406 -75.234438 179.045527 0.000000 0.000000 0.000000 3.661611 0.796848 -0.904826 3.735291 19.374733 -5.814857 -4.937964 -2.182563 2.093705 -53.682456 19.084691 66.123751 -178.504767 65.135730 177.279459 0.000000 0.000000 0.000000 
3.281522 77.816505 1.160942 0.000000 0.000000 0.000000 -5.207735 -44.160906 -2.203342 -54.033002 -5.039833 28.231489 60.935198 0.572736 -0.619162 4.359726 -8.768003 -10.984886 -3.302212 -0.000027 -1.038579 0.000000 0.000000 0.000000 -7.317137 -41.705026 -2.302272 -12.224422 -13.997818 -30.079812 54.071626 -0.522952 -4.440885 -28.174419 -17.142971 31.164411 -0.200023 0.587644 0.889880 0.000000 0.000000 0.000000 -4.837432 -39.927295 -1.242029 11.769112 6.457228 -0.243217 2.587599 1.284231 -0.960395 0.596345 -0.094539 0.640843 0.000000 0.000000 0.000000 3.593789 0.859712 -0.450685 -5.723242 12.594066 1.981284 5.934025 16.362410 -5.838640 0.000000 0.000000 0.000000 3.628499 1.102909 -0.579054 1.509945 0.770036 -7.582159 -1.211020 -2.613746 -0.750752 -57.232576 4.673869 -47.759210 178.620293 -75.209563 179.080142 0.000000 0.000000 0.000000 3.812811 0.756554 -0.782101 3.783260 18.629109 -6.006832 -4.713714 -2.245042 2.039083 -55.041209 19.699483 68.507856 -178.957240 66.258354 177.631377 0.000000 0.000000 0.000000 
2.913438 78.321152 -0.019680 0.000000 0.000000 0.000000 -5.322583 -44.113210 -1.567500 -54.386618 -5.266717 27.210413 59.395359 0.096025 0.084130 6.210961 -9.605596 -10.751257 -3.333563 0.035323 -1.297936 0.000000 0.000000 0.000000 -7.487623 -41.772679 -1.656261 -12.640666 -14.073361 -30.235140 53.747346 -0.517444 -4.127684 -28.576567 -16.877956 30.163659 0.152255 0.668340 1.224215 0.000000 0.000000 0.000000 -4.823432 -40.632672 -0.526253 11.679814 6.332361 0.027123 2.605617 1.202342 -0.890556 0.404083 -0.007643 0.470064 0.000000 0.000000 0.000000 3.558545 0.792721 -0.385928 -4.575546 12.823612 1.376407 6.591557 16.957954 -6.612896 0.000000 0.000000 0.000000 3.644740 1.020560 -0.540401 1.602843 0.915248 -7.968633 -1.048949 -2.581191 -0.841900 -56.125871 4.542294 -48.130765 178.684401 -75.028207 179.235898 0.000000 0.000000 0.000000 3.906932 0.732027 -0.713506 3.840557 18.057989 -6.249564 -4.538638 -2.261535 2.011206 -55.964596 20.447227 70.605400 -179.223290 67.127967 177.835901 0.000000 0.000000 0.000000 
2.561909 78.860855 -1.077423 0.000000 0.000000 0.000000 -5.516942 -44.067766 -0.872421 -54.809389 -5.182280 25.887161 58.258365 -0.925385 0.928459 7.611736 -10.954386 -11.469745 -4.067846 -0.016742 -0.769120 0.000000 0.000000 0.000000 -7.570896 -41.820787 -0.870978 -13.310774 -13.987918 -30.373803 53.788074 -0.496347 -3.950695 -28.701934 -16.741287 29.404876 -0.305599 0.708744 1.393271 0.000000 0.000000 0.000000 -4.958781 -41.288989 0.158745 11.682849 6.289931 0.069225 2.623989 1.141060 -0.854020 0.329401 0.013852 0.433310 0.000000 0.000000 0.000000 3.509615 0.743919 -0.364882 -3.540272 13.026606 0.947921 7.290735 17.487518 -7.240838 0.000000 0.000000 0.000000 3.643467 0.956151 -0.539871 1.663682 1.059392 -8.122769 -0.848199 -2.462350 -0.944077 -55.326974 4.463488 -48.469720 178.858325 -74.898994 179.465816 0.000000 0.000000 0.000000 3.949889 0.717078 -0.689976 3.890444 17.695734 -6.549652 -4.425674 -2.271392 2.039445 -56.492174 21.132713 72.402819 -179.264503 67.633899 177.843550 0.000000 0.000000 0.000000 
2.301467 79.347633 -1.888176 0.000000 0.000000 0.000000 -5.792218 -44.296249 -0.222387 -54.952144 -4.475779 24.514929 57.480304 -2.147168 1.665868 8.176267 -12.488620 -12.637514 -5.396357 -0.198661 0.517936 0.000000 0.000000 0.000000 -7.561566 -41.945155 -0.051705 -14.209405 -13.668049 -30.477537 53.987178 -0.400771 -3.948167 -28.900771 -16.662578 28.827534 -0.774661 0.740433 1.362448 0.000000 0.000000 0.000000 -5.209668 -41.990972 0.739393 11.765618 6.321039 -0.044558 2.653868 1.104430 -0.831924 0.352789 -0.027470 0.473106 0.000000 0.000000 0.000000 3.443805 0.719018 -0.365142 -2.675283 13.188516 0.683832 8.043402 17.929383 -7.689371 0.000000 0.000000 0.000000 3.633077 0.906633 -0.555107 1.689056 1.227884 -8.089696 -0.721184 -2.279590 -1.031763 -54.848113 4.527386 -48.742463 179.079842 -74.869187 179.703438 0.000000 0.000000 0.000000 3.953985 0.713377 -0.680618 3.933500 17.493492 -6.871002 -4.315612 -2.262587 2.007693 -56.627907 21.641243 73.878509 -179.189057 67.866535 177.756534 0.000000 0.000000 0.000000 
